# xmcd CD database file
#
# Track frame offsets:
#	150
#	23765
#	50880
#	87905
#	114770
#	146105
#	181780
#	207457
#
# Disc length: 3091 seconds
#
# Revision: 0
# Processed by: cddbd v1.5.1PL0 Copyright (c) Steve Scherf et al.
# Submitted via: CDex 1.51
#
DISCID=6b0c1108
DTITLE=Danilo Rea, Pietro Tonolo - Sotto La Luna
DYEAR=1999
DGENRE=Jazz
TTITLE0=Ah, Cosa Non e Stato...
TTITLE1=Lento
TTITLE2=Primedonne
TTITLE3=Fast
TTITLE4=Occhi
TTITLE5=Dromedario
TTITLE6=Bizze
TTITLE7=Never
EXTD=YEAR: 1999
EXTT0=
EXTT1=
EXTT2=
EXTT3=
EXTT4=
EXTT5=
EXTT6=
EXTT7=
PLAYORDER=
